<?xml version="1.0" standalone="no"?><!DOCTYPE svg PUBLIC "-//W3C//DTD SVG 1.1//EN" "http://www.w3.org/Graphics/SVG/1.1/DTD/svg11.dtd"><svg t="1512656350844" class="icon" style="" viewBox="0 0 1024 1024" version="1.1" xmlns="http://www.w3.org/2000/svg" p-id="1516" xmlns:xlink="http://www.w3.org/1999/xlink" width="18" height="18"><defs><style type="text/css"></style></defs><path d="M401.54624 768a41.71264 41.71264 0 0 1-30.37696-12.96384 42.54208 42.54208 0 0 1 1.11104-59.85792l190.52544-184.40704-191.22688-181.66784A42.33216 42.33216 0 0 1 400.56832 256a41.89184 41.89184 0 0 1 28.95872 11.56608l223.17568 211.968a42.12736 42.12736 0 0 1 8.704 48.84992 16.44544 16.44544 0 0 1-1.63328 2.76992 48.10752 48.10752 0 0 0-0.54784 1.024 30.53056 30.53056 0 0 1-4.91008 7.26016l-0.15872 0.16384c-0.14848 0.1536-0.29184 0.29184-0.43008 0.41984a15.00672 15.00672 0 0 1-1.59232 1.92512l-221.32736 214.20032A41.93792 41.93792 0 0 1 401.54624 768z" fill="#4ba0f1" p-id="1517"></path></svg>