<svg width="1126" height="1024" xmlns="http://www.w3.org/2000/svg" stroke="null" style="vector-effect: non-scaling-stroke;" class="icon">
 <defs stroke="null" style="vector-effect: non-scaling-stroke;">
  <style stroke="null" style="vector-effect: non-scaling-stroke;" type="text/css"/>
 </defs>
 <g stroke="null">
  <title stroke="null">background</title>
  <rect stroke="null" fill="none" id="canvas_background" height="1026" width="1128" y="-1" x="-1"/>
 </g>
 <g stroke="null">
  <title stroke="null">Layer 1</title>
  <path stroke="null" stroke-opacity="0" stroke-width="0" id="svg_1" fill="#a0afb8" d="m1074.986297,649.53784c0,-35.45259 -12.19253,-62.49516 -36.03509,-78.20769c14.46754,-8.19377 35.77634,-48.70512 35.77634,-84.48146c-1.44,-59.10264 -58.62264,-102.9115 -144.9616,-102.9115l-228.92681,0c39.19885,-106.68901 31.80633,-250.56186 -17.34379,-327.3583c-29.59883,-46.21261 -65.15141,-56.57889 -89.82397,-56.57889c-83.07146,0 -85.79146,80.03395 -85.79146,107.26526c0,91.07022 -13.15378,132.57408 -29.53632,170.84542c-12.99254,24.77131 -92.51398,106.24026 -173.76043,106.24026l-152.25537,0c-58.78514,0 -101.4115,49.21887 -101.314,119.26904l39.4876,416.66977c4.77001,64.1939 36.28884,103.0715 99.52149,103.0715c0,0 31.48883,0.26 55.07388,0.26c12.03128,0 23.26131,-0.09875 29.91633,-0.26c19.48755,-0.64 35.55259,-13.12003 49.76137,-23.61381c10.04877,-7.39252 18.01754,-13.82878 25.24881,-13.82878c3.23251,0 21.6938,10.59627 44.35136,20.22505c23.10505,9.76252 59.74514,17.85629 94.78523,17.85629l318.43328,0c106.75276,0 158.01288,-40.0001 158.01288,-106.68901c0,-19.7138 -4.54126,-31.39258 -15.48379,-46.65636c42.84636,-10.26753 80.8602,-37.2126 80.8602,-83.67646c0,-17.25129 -8.12502,-44.96136 -19.2288,-52.31763c20.95631,-5.34751 63.29641,-42.7251 63.23266,-85.1227l0,0zm-801.5407,331.84331c-19.0713,0.60375 -87.48522,0 -87.93397,0c-24.54631,0 -46.30386,-23.13631 -51.84138,-54.21014l-39.48759,-433.1548c0,-32.41258 26.07881,-67.93517 60.8939,-67.93517l0,0.225l149.50661,0.44875c2.55876,0 5.08876,-0.32125 7.61752,-0.415l0,529.88879c-6.91377,4.82877 -13.37878,9.50253 -17.98754,12.89504c-6.33377,4.67251 -16.9238,11.80627 -20.76755,12.25753l0,0zm698.21045,-275.07568l-5.79126,0l0.5425,38.6576c4.64376,1.7575 21.76255,6.90877 21.79255,40.5126c0,35.99634 -47.29511,50.46387 -87.13396,50.46387l0.0975,0l-0.67375,36.83134c16.22504,3.61376 22.0463,17.79254 22.0163,40.44885c0,39.6151 -32.19258,68.16017 -115.81028,68.16017l-329.76331,0c-15.77129,0 -47.80762,-9.18628 -66.26891,-18.1163c-17.40754,-8.41252 -45.31261,-24.16006 -54.94638,-29.37507l0,-514.56126c82.9152,-22.9738 151.36287,-94.49273 168.64291,-127.52031c18.78379,-43.67635 28.19257,-89.34022 28.19257,-189.50171c0,-49.76137 18.27254,-56.45014 37.72509,-56.45014c17.21629,0 44.57511,18.9788 58.40389,40.6101c40.9276,63.90141 50.49388,201.56799 -0.42,304.67325l-8.76502,35.67883l292.25696,-0.06375c49.76138,2.72001 99.77525,23.07131 99.77525,59.7764l-0.35125,11.48878c0.16125,0.47875 -1.21626,31.80632 -17.8913,45.63011c-13.98503,11.61627 -25.31256,12.00378 -25.31256,12.00378l-0.3175,38.04634c0,0 16.86504,2.27 25.66381,8.32002c13.24754,9.08752 19.26255,26.30381 18.56005,45.11761c-0.86376,23.80756 -37.66509,59.16889 -60.2239,59.16889l0,0zm0,0"/>
 </g>
</svg>