<?xml version="1.0" standalone="no"?><!DOCTYPE svg PUBLIC "-//W3C//DTD SVG 1.1//EN" "http://www.w3.org/Graphics/SVG/1.1/DTD/svg11.dtd"><svg t="1512656433332" class="icon" style="" viewBox="0 0 1024 1024" version="1.1" xmlns="http://www.w3.org/2000/svg" p-id="2396" xmlns:xlink="http://www.w3.org/1999/xlink" width="18" height="18"><defs><style type="text/css"></style></defs><path d="M622.45376 768a41.71264 41.71264 0 0 0 30.37696-12.96384 42.54208 42.54208 0 0 0-1.11104-59.85792L461.19424 510.7712l191.22688-181.66784A42.33728 42.33728 0 0 0 623.43168 256a41.8816 41.8816 0 0 0-28.95872 11.56608L371.29728 479.5392a42.13248 42.13248 0 0 0-8.704 48.84992 16.34304 16.34304 0 0 0 1.6384 2.76992c0.18432 0.3328 0.36864 0.68096 0.54784 1.024a30.51008 30.51008 0 0 0 4.90496 7.26016l0.15872 0.16384c0.14848 0.1536 0.29696 0.29184 0.43008 0.41984a15.2576 15.2576 0 0 0 1.59232 1.92512l221.30688 214.19008a41.92768 41.92768 0 0 0 29.28128 11.85792z" fill="#000000" p-id="2397"></path></svg>