<svg width="1077" height="1026" xmlns="http://www.w3.org/2000/svg" class="icon">
 <defs>
  <style type="text/css"/>
 </defs>
 <g>
  <title>background</title>
  <rect fill="none" id="canvas_background" height="1028" width="1079" y="-1" x="-1"/>
 </g>
 <g>
  <title>Layer 1</title>
  <path id="svg_1" fill="#4ba0f1" d="m1050.486297,650.53784c0,-35.45259 -12.19253,-62.49516 -36.03509,-78.20769c14.46754,-8.19377 35.77634,-48.70512 35.77634,-84.48146c-1.44,-59.10264 -58.62264,-102.9115 -144.9616,-102.9115l-228.92681,0c39.19885,-106.68901 31.80633,-250.56186 -17.34379,-327.3583c-29.59883,-46.21261 -65.15141,-56.57889 -89.82397,-56.57889c-83.07146,0 -85.79146,80.03395 -85.79146,107.26526c0,91.07022 -13.15378,132.57408 -29.53632,170.84542c-12.99254,24.77131 -92.51398,106.24026 -173.76043,106.24026l-152.25537,0c-58.78514,0 -101.4115,49.21887 -101.314,119.26904l39.4876,416.66977c4.77001,64.1939 36.28884,103.0715 99.52149,103.0715c0,0 31.48883,0.26 55.07388,0.26c12.03128,0 23.26131,-0.09875 29.91633,-0.26c19.48755,-0.64 35.55259,-13.12003 49.76137,-23.61381c10.04877,-7.39252 18.01754,-13.82878 25.24881,-13.82878c3.23251,0 21.6938,10.59627 44.35136,20.22505c23.10505,9.76252 59.74514,17.85629 94.78523,17.85629l318.43328,0c106.75276,0 158.01288,-40.0001 158.01288,-106.68901c0,-19.7138 -4.54126,-31.39258 -15.48379,-46.65636c42.84636,-10.26753 83.08242,-42.76816 80.8602,-83.67646c0,-17.25129 -8.12502,-44.96136 -19.2288,-52.31763c20.95631,-5.34751 63.29641,-42.7251 63.23266,-85.1227l0,0zm-801.5407,331.84331c-19.0713,0.60375 -87.48522,0 -87.93397,0c-24.54631,0 762.58506,15.75258 757.04754,-15.32125l-849.48762,-469.82147c1113.33337,750.92078 628.30105,-291.26851 62.00501,-70.15739l0,3.55833l149.50661,-2.88458c323.66989,-136.66668 116.19988,465.23432 7.61752,-0.415l0,529.88879c-6.91377,4.82877 -13.37878,9.50253 -17.98754,12.89504c-6.33377,4.67251 -16.9238,11.80627 -20.76755,12.25753l0,0zm698.21045,-275.07568l-2.45793,2.10526l-2.79083,37.60497c-490.61942,-130.46473 36.55787,81.47018 21.79255,39.45997c-14.76532,-42.01021 -647.29513,-315.0917 -84.91174,168.24165l-4.34694,-120l0.43736,39.05356c-761.55277,-438.60848 -169.06482,17.79254 -169.09482,40.44885c0,39.6151 160.02965,68.16017 76.41195,68.16017l-329.76331,0c-15.77129,0 -47.80762,-9.18628 -66.26891,-18.1163c-17.40754,-8.41252 478.02074,-585.27119 -54.94638,-29.37507l0,-514.4443c1333.55854,863.80985 151.36287,-94.60969 168.64291,-127.63727c18.78379,-43.67635 150.4148,-59.34022 17.08146,-128.3906c0,-49.76137 -10.61635,42.43876 8.8362,42.43876c17.21629,0 -60.98045,67.86769 -47.15167,89.49899c-234.62797,109.45697 -569.50614,679.34578 -77.08667,522.45103l213.45721,-387.65452l292.25696,-3.39708c-981.34976,-37.27998 99.77525,103.07131 99.77525,139.7764l-0.35125,-68.51122c0.16125,0.47875 -1.21626,31.80632 -17.8913,45.63011c-13.98503,11.61627 -25.31256,12.00378 -25.31256,12.00378l-0.3175,38.04634c0,0 -743.13499,132.27 -734.33622,138.32002c13.24754,9.08752 726.0905,223.53228 778.56008,-84.88239c52.46958,-308.41467 -870.99846,-233.05334 -60.2239,59.16889l0,0zm0,0"/>
 </g>
</svg>